<svg width="14" height="19" viewBox="0 0 14 19" fill="none" xmlns="http://www.w3.org/2000/svg">
<path fill-rule="evenodd" clip-rule="evenodd" d="M7 0.25C3.26303 0.291023 0.25 3.32909 0.25 7.07042C0.25 7.08976 0.25 7.10968 0.25 7.12902C0.25 10.7643 6.29305 18.455 6.55039 18.7802C6.65591 18.9144 6.81769 19 7 19C7.18231 19 7.34409 18.9144 7.44844 18.7814C7.70695 18.455 13.75 10.7643 13.75 7.12609C13.75 7.10968 13.75 7.09035 13.75 7.07042C13.75 3.32851 10.7364 0.291023 7.00352 0.25H7ZM7 17.4616C5.10015 14.9621 1.4048 9.58984 1.4048 7.12609C1.40421 7.09679 1.40363 7.06163 1.40363 7.02705C1.40363 3.93682 3.90901 1.43206 7 1.43206C10.091 1.43206 12.5964 3.93682 12.5964 7.02705C12.5964 7.06163 12.5958 7.09679 12.5952 7.13137C12.5952 9.58866 8.89926 14.9598 6.99941 17.4605L7 17.4616ZM7 4.15835C6.98241 4.15776 6.9619 4.15776 6.94138 4.15776C5.2256 4.15776 3.83456 5.54845 3.83456 7.26381C3.83456 8.97917 5.2256 10.3699 6.94138 10.3699C8.65716 10.3699 10.0476 8.97976 10.0482 7.2644C10.0482 7.2562 10.0482 7.24623 10.0482 7.23627C10.0482 5.5467 8.68765 4.17417 7.00176 4.15542L7 4.15835ZM7 9.19308C6.98945 9.19308 6.97655 9.19367 6.96366 9.19367C5.89737 9.19367 5.03333 8.32983 5.03333 7.26381C5.03333 6.19779 5.89737 5.33396 6.96366 5.33396C8.02994 5.33396 8.89399 6.19779 8.89399 7.26381C8.89399 7.2644 8.89399 7.2644 8.89399 7.26499C8.89399 7.2685 8.89399 7.27319 8.89399 7.27729C8.89399 8.3269 8.04811 9.1796 7.00117 9.19074L7 9.19308Z" fill="white"/>
</svg>
