<svg width="48" height="18" viewBox="0 0 48 18" fill="none" xmlns="http://www.w3.org/2000/svg">
<path fill-rule="evenodd" clip-rule="evenodd" d="M41.7807 0.0726753C43.587 -0.185576 45.2387 0.248718 46.3642 1.30733C47.3938 2.27565 47.9131 3.64709 47.789 5.07026C47.5541 7.76025 46.242 9.91555 42.5886 13.4665L36.6094 13.6618C36.6094 13.6618 40.7744 9.89836 42.3409 8.05961C43.3558 6.86808 43.7858 5.58187 43.3689 4.72457C43.1047 4.18128 42.5115 3.9109 41.7807 3.95133V0.0726753ZM29.5285 2.20547V5.7024L34.7216 5.13418V1.4794L29.5285 2.20547ZM25.2991 18V2.79685L28.8626 2.29854V18H25.2991ZM11.2228 4.76941V7.70906L15.1481 7.27966V4.22073L11.2228 4.76941ZM7.99793 17.9999V5.22042L10.7162 4.84037V17.9999H7.99793ZM0 6.33858V8.93726L7.04647 8.16605V5.35358L0 6.33858ZM2.24837 9.09528V18H4.82834V8.83332L2.24837 9.09528ZM11.2228 12.8909V9.89716L13.7997 9.67681V12.7509L11.2228 12.8909ZM11.2227 15.0482V17.9999H15.148V14.9304L11.2227 15.0482ZM29.5285 11.8945V8.33268L32.9324 8.04242V11.7095L29.5285 11.8945ZM29.5284 14.4978V17.9999H34.7215V14.3419L29.5284 14.4978ZM16.1866 18V4.07543L19.283 3.64248V18H16.1866ZM19.8609 14.7888V17.9999H24.3559V14.6539L19.8609 14.7888ZM48 17.9999V13.9412L35.8718 14.2413V17.9999H48ZM36.0299 7.69253C35.8303 3.48486 37.5603 0.905885 41.0835 0.159769L41.0857 4.11002C40.3462 4.41999 39.6154 4.98383 39.7866 7.36099L36.0299 7.69253Z" fill="white"/>
</svg>
