<svg width="18" height="13" viewBox="0 0 18 13" fill="none" xmlns="http://www.w3.org/2000/svg">
<path d="M18 1.36842C17.3377 1.79989 16.626 1.97632 15.75 2.05263C16.6414 1.64949 17.227 1.00634 17.25 0C16.7891 0.616085 15.9989 0.889182 15 1.36842C14.4841 0.398507 13.5243 0 12.75 0C10.4226 0 8.76922 1.46934 9 3.42105C8.76922 3.53898 8.80188 3.78946 9 4.10526C5.79571 3.89278 3.07458 2.58625 1.5 0.68421C0.93533 1.08536 0.753186 1.64911 0.75 2.05263C0.753186 3.3892 1.40512 4.39374 2.25 4.78947C1.79068 4.96521 1.22126 4.81758 0.75 4.78947C0.723058 4.58545 0.723058 4.59919 0.75 4.78947C0.723058 6.20313 1.99603 7.52953 3.75 7.52631C3.37552 7.90604 3.04924 7.94628 3 8.21053C2.47447 7.94628 2.24314 7.92566 2.25 8.21053C2.48758 9.19107 3.85136 10.1401 5.25 10.2632C4.20348 11.0468 2.61116 11.5714 0.75 11.6316C0.582854 11.5714 0.288913 11.5559 0 11.6316C1.63427 12.4567 3.57542 13 6 13C12.4534 13 16.1679 7.99914 16.5 3.42105C16.1643 3.37846 16.1679 3.51999 16.5 3.42105C16.8788 2.77499 17.5049 2.19699 18 1.36842Z" fill="white"/>
</svg>
