<svg width="20" height="11" viewBox="0 0 20 11" fill="none" xmlns="http://www.w3.org/2000/svg">
<path d="M9.78058 10.9912H10.9797C11.1839 10.9679 11.3756 10.8877 11.5293 10.7612C11.6391 10.6127 11.6951 10.4358 11.6892 10.256C11.6892 10.256 11.6692 8.69313 12.4087 8.46591C13.1481 8.23869 14.0875 9.96039 15.0867 10.6199C15.4559 10.9067 15.9366 11.0404 16.4158 10.9893H19.0838C19.0838 10.9893 20.4828 10.8877 19.8233 9.82923C19.2972 8.99399 18.6253 8.24494 17.8347 7.61244C16.156 6.11519 16.3858 6.35719 18.4043 3.76725C19.6334 2.18963 20.1231 1.22625 19.9732 0.81153C19.7038 0.548427 19.3106 0.426236 18.9239 0.485478H15.9161C15.7811 0.474683 15.6456 0.500692 15.5264 0.560294C15.4047 0.646844 15.3113 0.762907 15.2566 0.895584C14.9466 1.67967 14.5759 2.44212 14.1474 3.17703C12.8084 5.36702 12.2688 5.48618 12.0489 5.3467C11.5393 5.02896 11.6692 4.07298 11.6692 3.39409C11.6692 1.26967 12.009 0.385723 11.0197 0.161273C10.5626 0.0552004 10.0915 0.0101004 9.6207 0.0273429C8.77856 -0.0488981 7.92844 0.0347087 7.12251 0.273036C6.78276 0.434677 6.51295 0.793057 6.67284 0.814301C7.01858 0.845363 7.33761 0.999766 7.56219 1.24473C7.7719 1.65385 7.87459 2.10283 7.86197 2.5554C7.86197 2.5554 8.04184 5.0539 7.44228 5.36425C7.04257 5.5767 6.48297 5.14258 5.29384 3.15578C4.88583 2.4555 4.52539 1.73241 4.21462 0.99072C4.15972 0.866713 4.07416 0.756313 3.9648 0.668362C3.82708 0.57896 3.67041 0.517572 3.50514 0.48825H0.64721C0.436033 0.488772 0.231447 0.556264 0.0676301 0.679446C-0.0149627 0.832686 -0.0222442 1.01136 0.0476458 1.16991C0.0476458 1.16991 2.28602 6.25004 4.82418 8.79103C6.06563 10.1386 7.86654 10.937 9.78058 10.9884V10.9912Z" fill="white"/>
</svg>
